# xmcd CD database file
#
# Track frame offsets:
#	150
#	12875
#	26948
#	39875
#	50445
#	63830
#	75190
#	87915
#	100640
#	110665
#	128958
#	143503
#	155035
#	167543
#	178820
#	190970
#
# Disc length: 2737 seconds
#
# Revision: 3
# Processed by: cddbd v1.5.2PL0 Copyright (c) Steve Scherf et al.
# Submitted via: CdAid (MTCDDB.DLL V2003.12.21)
#
DISCID=c50aaf10
DTITLE=Bo Diddley - The Ultimate Collection
DYEAR=1992
DGENRE=Rock
TTITLE0=Bo Diddley
TTITLE1=Befor You Accuse Me
TTITLE2=Hey Good Looking
TTITLE3=Mona (I Need You, Baby)
TTITLE4=I'm A Man
TTITLE5=Gun Slinger
TTITLE6=Road Runner
TTITLE7=Puttentang
TTITLE8=Hey! Bo Diddley
TTITLE9=She's Alright
TTITLE10=You Can't Judge A Book By Its Cover
TTITLE11=I'm Looking For A Woman
TTITLE12=Cadillac
TTITLE13=Who Do You Love?
TTITLE14=Bo's A Lumber Jack
TTITLE15=Say Man
EXTD=MCA Records. MCD 18587. Made in Germany. ID3G:  17 YEAR: 1992
EXTT0=
EXTT1=
EXTT2=
EXTT3=
EXTT4=
EXTT5=
EXTT6=
EXTT7=
EXTT8=
EXTT9=
EXTT10=
EXTT11=
EXTT12=
EXTT13=
EXTT14=
EXTT15=
PLAYORDER=
